<svg xmlns="http://www.w3.org/2000/svg" xmlns:xlink="http://www.w3.org/1999/xlink" width="500" zoomAndPan="magnify" viewBox="0 0 375 374.999991" height="500" preserveAspectRatio="xMidYMid meet" version="1.0"><defs><filter x="0%" y="0%" width="100%" height="100%" id="7829e23b72"><feColorMatrix values="0 0 0 0 1 0 0 0 0 1 0 0 0 0 1 0 0 0 1 0" color-interpolation-filters="sRGB"/></filter><mask id="eecb3e7150"><g filter="url(#7829e23b72)"><rect x="-37.5" width="450" fill="#000000" y="-37.499999" height="449.999989" fill-opacity="0.81"/></g></mask><clipPath id="91dc8ff1fc"><path d="M 0.25 29.375 L 125.714844 29.375 L 125.714844 85.625 L 0.25 85.625 Z M 0.25 29.375 " clip-rule="nonzero"/></clipPath><clipPath id="58381ecc35"><path d="M 97.398438 29.375 C 112.933594 29.375 125.523438 41.96875 125.523438 57.5 C 125.523438 73.03125 112.933594 85.625 97.398438 85.625 L 28.375 85.625 C 12.84375 85.625 0.25 73.03125 0.25 57.5 C 0.25 41.96875 12.84375 29.375 28.375 29.375 Z M 97.398438 29.375 " clip-rule="nonzero"/></clipPath><clipPath id="10ab58f2de"><path d="M 50.890625 10.464844 L 97.921875 10.464844 L 97.921875 57.5 L 50.890625 57.5 Z M 50.890625 10.464844 " clip-rule="nonzero"/></clipPath><clipPath id="fdc316bf84"><path d="M 74.40625 10.464844 C 61.417969 10.464844 50.890625 20.996094 50.890625 33.984375 C 50.890625 46.972656 61.417969 57.5 74.40625 57.5 C 87.394531 57.5 97.921875 46.972656 97.921875 33.984375 C 97.921875 20.996094 87.394531 10.464844 74.40625 10.464844 Z M 74.40625 10.464844 " clip-rule="nonzero"/></clipPath><clipPath id="aa83ccf431"><path d="M 21.375 0.109375 L 68.410156 0.109375 L 68.410156 47.144531 L 21.375 47.144531 Z M 21.375 0.109375 " clip-rule="nonzero"/></clipPath><clipPath id="170254bf48"><path d="M 44.890625 0.109375 C 31.902344 0.109375 21.375 10.640625 21.375 23.628906 C 21.375 36.617188 31.902344 47.144531 44.890625 47.144531 C 57.878906 47.144531 68.410156 36.617188 68.410156 23.628906 C 68.410156 10.640625 57.878906 0.109375 44.890625 0.109375 Z M 44.890625 0.109375 " clip-rule="nonzero"/></clipPath><clipPath id="aee3488528"><rect x="0" width="126" y="0" height="86"/></clipPath></defs><g mask="url(#eecb3e7150)"><g transform="matrix(1, 0, 0, 1, 131, 130)"><g clip-path="url(#aee3488528)"><g clip-path="url(#91dc8ff1fc)"><g clip-path="url(#58381ecc35)"><path fill="#ffffff" d="M 0.25 29.375 L 125.492188 29.375 L 125.492188 85.625 L 0.25 85.625 Z M 0.25 29.375 " fill-opacity="1" fill-rule="nonzero"/></g></g><g clip-path="url(#10ab58f2de)"><g clip-path="url(#fdc316bf84)"><path fill="#ffffff" d="M 50.890625 10.464844 L 97.921875 10.464844 L 97.921875 57.5 L 50.890625 57.5 Z M 50.890625 10.464844 " fill-opacity="1" fill-rule="nonzero"/></g></g><g clip-path="url(#aa83ccf431)"><g clip-path="url(#170254bf48)"><path fill="#ffffff" d="M 21.375 0.109375 L 68.410156 0.109375 L 68.410156 47.144531 L 21.375 47.144531 Z M 21.375 0.109375 " fill-opacity="1" fill-rule="nonzero"/></g></g></g></g></g></svg>